<svg version="1.1" width="495" height="181.75" viewBox="0 0 495 181.75" xmlns="http://www.w3.org/2000/svg" xmlns:xlink="http://www.w3.org/1999/xlink" id="Layer_1" overflow="hidden"><g><defs><rect x="-86.25" y="-72.75" width="1203" height="340" id="SVGID_1_"/></defs><clipPath id="SVGID_2_"><use width="100%" height="100%" xlink:href="#SVGID_1_" overflow="visible"></use></clipPath><path d=" M 57.555 119.225 C 52.171 112.955 45.571 109.598 37.475 109.598 C 24.298 109.598 14.122 121.514 14.122 134.653 C 14.122 149.319 24.149 160.012 38.383 160.012 C 46.168 160.012 52.463 156.347 57.555 150.536 L 57.555 168.11 C 51.42 171.466 45.271 172.847 38.226 172.847 C 17.561 172.847 0.639 156.65 0.639 135.263 C 0.639 113.106 17.412 96.762 38.975 96.762 C 45.271 96.762 52.171 98.289 57.555 101.498 L 57.555 119.225 Z" clip-path="url(#SVGID_2_)"/><rect x="71.324" y="65.158" width="13.488" height="105.243" clip-path="url(#SVGID_2_)"/><path d=" M 171.236 134.808 C 171.236 156.347 154.757 172.848 133.791 172.848 C 112.812 172.848 96.336 156.347 96.336 134.808 C 96.336 113.262 112.812 96.763 133.791 96.763 C 154.757 96.762 171.236 113.262 171.236 134.808 M 109.814 134.808 C 109.814 148.243 120.455 159.706 133.791 159.706 C 147.112 159.706 157.75 148.242 157.75 134.808 C 157.75 121.209 147.112 109.9 133.791 109.9 C 120.455 109.899 109.814 121.209 109.814 134.808" clip-path="url(#SVGID_2_)"/><path d=" M 210.322 115.253 C 208.677 111.733 205.222 108.983 201.334 108.983 C 197.596 108.983 193.987 112.04 193.987 116.017 C 193.987 122.274 202.085 125.025 210.322 128.842 C 218.559 132.662 226.501 137.86 226.501 149.163 C 226.501 162.76 215.42 172.847 202.383 172.847 C 192.201 172.847 181.865 166.882 178.121 156.804 L 189.651 151.453 C 192.49 156.804 195.934 160.618 202.383 160.618 C 208.072 160.618 213.018 156.647 213.018 150.535 C 213.018 146.715 211.216 144.883 208.072 142.745 L 194.892 135.567 C 187.106 131.289 181.414 127.316 181.414 117.543 C 181.414 105.927 190.702 96.762 202.085 96.762 C 210.617 96.762 217.513 101.496 221.252 109.283 L 210.322 115.253 Z" clip-path="url(#SVGID_2_)"/><path d=" M 246.414 136.944 C 246.565 149.164 254.647 160.619 267.539 160.619 C 277.866 160.619 283.404 155.274 288.504 146.717 L 299.88 153.294 C 293.294 165.66 281.018 172.848 267.384 172.848 C 245.965 172.848 232.933 156.348 232.933 135.264 C 232.933 113.262 244.468 96.762 267.077 96.762 C 289.396 96.762 299.88 113.568 299.88 134.809 L 299.88 136.945 L 246.414 136.945 Z M 286.4 126.554 C 284.76 115.864 277.866 108.678 267.077 108.678 C 256.593 108.678 248.81 116.319 247.159 126.554 L 286.4 126.554 Z" clip-path="url(#SVGID_2_)"/><path d=" M 324.436 110.513 L 324.898 110.513 C 328.188 102.111 335.079 96.762 344.067 96.762 C 347.962 96.762 351.855 98.139 355.151 100.278 L 349.003 112.804 C 346.62 110.663 343.916 109.9 340.766 109.9 C 326.241 109.9 324.436 123.651 324.436 135.264 L 324.436 170.4 L 310.961 170.4 L 310.961 98.902 L 324.436 98.902 L 324.436 110.513 Z" clip-path="url(#SVGID_2_)"/><path d=" M 456.004 52.924 C 448.256 44.047 436.97 38.458 424.397 38.458 C 417.989 38.458 411.912 39.911 406.467 42.513 C 408.8 27.796 421.319 16.565 436.397 16.565 C 452.058 16.565 464.952 28.689 466.538 44.246 C 462.155 45.871 458.453 48.956 456.004 52.924" fill="#EC008C" clip-path="url(#SVGID_2_)"/><path d=" M 408.745 121.723 C 393.124 115.373 382.082 99.807 382.082 81.616 C 382.082 64.319 392.065 49.398 406.468 42.513 C 406.213 44.133 406.081 45.793 406.081 47.485 C 406.081 64.555 419.662 78.408 436.398 78.408 C 443.135 78.408 449.363 76.162 454.394 72.364 C 456.639 77.878 461.094 82.226 466.627 84.251 C 466.051 93.985 462.315 102.85 456.448 109.788 C 451.173 105.084 444.271 102.233 436.713 102.233 C 423.983 102.232 413.104 110.314 408.745 121.723" fill="#FBB03F" clip-path="url(#SVGID_2_)"/><path d=" M 436.397 78.407 C 419.661 78.407 406.08 64.554 406.08 47.485 C 406.08 45.792 406.213 44.131 406.468 42.514 C 411.913 39.912 417.989 38.458 424.398 38.458 C 436.97 38.458 448.256 44.048 456.004 52.922 C 453.982 56.198 452.815 60.074 452.815 64.229 C 452.815 67.11 453.377 69.856 454.394 72.362 C 449.362 76.16 443.134 78.407 436.397 78.407" fill="#ED1B34" clip-path="url(#SVGID_2_)"/><path d=" M 436.713 163.423 C 420.144 163.423 406.707 149.728 406.707 132.826 C 406.707 128.91 407.428 125.164 408.745 121.721 C 413.585 123.691 418.868 124.774 424.398 124.774 C 437.212 124.774 448.691 118.963 456.447 109.789 C 462.734 115.396 466.704 123.639 466.704 132.827 C 466.704 149.728 453.276 163.423 436.713 163.423" fill="#39B54A" clip-path="url(#SVGID_2_)"/><path d=" M 424.397 124.772 C 418.867 124.772 413.587 123.688 408.744 121.722 C 413.104 110.314 423.983 102.231 436.712 102.231 C 444.27 102.231 451.171 105.084 456.447 109.788 C 448.69 118.962 437.212 124.772 424.397 124.772" fill="#588944" clip-path="url(#SVGID_2_)"/><path d=" M 384.616 181.454 C 379.033 181.454 374.506 176.842 374.506 171.153 C 374.506 165.464 379.033 160.844 384.616 160.844 C 390.194 160.844 394.713 165.464 394.713 171.153 C 394.713 176.842 390.194 181.454 384.616 181.454" fill="#00AEEF" clip-path="url(#SVGID_2_)"/><path d=" M 340.365 48.171 C 327.456 48.171 316.995 37.504 316.995 24.342 C 316.995 11.182 327.456 0.509 340.365 0.509 C 353.272 0.509 363.735 11.182 363.735 24.342 C 363.735 37.504 353.272 48.171 340.365 48.171" fill="#662D91" clip-path="url(#SVGID_2_)"/><path d=" M 473.647 85.488 C 471.182 85.488 468.82 85.051 466.626 84.249 C 466.676 83.377 466.703 82.5 466.703 81.615 C 466.703 74.963 465.227 68.663 462.595 63.036 C 465.206 58.466 466.703 53.152 466.703 47.484 C 466.703 46.389 466.647 45.31 466.538 44.246 C 468.756 43.425 471.15 42.978 473.647 42.978 C 485.163 42.978 494.493 52.49 494.493 64.228 C 494.494 75.963 485.164 85.488 473.647 85.488" fill="#00AEEF" clip-path="url(#SVGID_2_)"/><path d=" M 462.596 63.035 C 460.869 59.345 458.64 55.945 456.005 52.924 C 458.454 48.955 462.156 45.872 466.539 44.246 C 466.648 45.312 466.704 46.389 466.704 47.484 C 466.704 53.152 465.207 58.466 462.596 63.035" fill="#2E3092" clip-path="url(#SVGID_2_)"/><path d=" M 466.626 84.249 C 461.093 82.226 456.638 77.878 454.396 72.362 C 457.71 69.862 460.507 66.686 462.595 63.035 C 465.228 68.662 466.703 74.964 466.703 81.615 C 466.703 82.499 466.677 83.379 466.626 84.249" fill="#008059" clip-path="url(#SVGID_2_)"/><path d=" M 454.394 72.362 C 453.378 69.855 452.815 67.109 452.815 64.228 C 452.815 60.073 453.983 56.198 456.005 52.922 C 458.64 55.944 460.869 59.344 462.596 63.036 C 460.508 66.686 457.71 69.86 454.394 72.362" fill="#363645" clip-path="url(#SVGID_2_)"/></g></svg>