<?xml version="1.0" encoding="UTF-8"?> <svg xmlns="http://www.w3.org/2000/svg" viewBox="0 0 395.59 112.3"><defs><style>.cls-1{fill:#828282;}.cls-2{fill:#fff;}.cls-3{fill:#de0613;}</style></defs><title>Asset 25</title><g id="Layer_2" data-name="Layer 2"><g id="ARTWORK"><path class="cls-1" d="M20.82,111.65V91H41.5V86.17H20.82V70.8H45.39V65.61H15v46Zm48.8-.77A17.24,17.24,0,0,0,75,107.05a17,17,0,0,0,3.5-5.58,18.33,18.33,0,0,0,1.23-6.68,18.1,18.1,0,0,0-1.26-6.74A17.64,17.64,0,0,0,75,82.47a16.72,16.72,0,0,0-12.36-5.25,16.51,16.51,0,0,0-6.9,1.42,16.77,16.77,0,0,0-5.38,3.83,17.67,17.67,0,0,0-3.51,5.58,18.1,18.1,0,0,0-1.26,6.74,18.33,18.33,0,0,0,1.23,6.68,17.22,17.22,0,0,0,3.47,5.58,16.88,16.88,0,0,0,5.38,3.83,17.84,17.84,0,0,0,14,0M52.3,89.9a12.8,12.8,0,0,1,2.4-4,11.57,11.57,0,0,1,3.57-2.72,9.76,9.76,0,0,1,4.37-1,10,10,0,0,1,4.38,1,11.64,11.64,0,0,1,3.6,2.69,12.57,12.57,0,0,1,2.43,4,13.52,13.52,0,0,1,.88,4.9,13.73,13.73,0,0,1-.88,5,12.57,12.57,0,0,1-2.43,4A11.64,11.64,0,0,1,67,106.4a10.35,10.35,0,0,1-8.75,0,11.23,11.23,0,0,1-3.57-2.66,12.35,12.35,0,0,1-2.4-4,13.61,13.61,0,0,1-.87-4.92,13.87,13.87,0,0,1,.87-5m51,20.36a15.64,15.64,0,0,0,6-5.87l.13,4a3.38,3.38,0,0,0,1.2,2.49,4.11,4.11,0,0,0,2.82,1c.35,0,.7,0,1.07,0s.88-.07,1.52-.16v-4.93c-1.21,0-1.81-.73-1.81-2.07V77.8h-5.71V99a13.25,13.25,0,0,1-4.57,6.13,11,11,0,0,1-6.58,2.23q-7.2,0-7.2-10.37V77.8H84.43V98.1q0,7.07,2.73,10.63t8,3.57a16.46,16.46,0,0,0,8.1-2m48.51-18.84a31,31,0,0,0-.48-5.64,13.41,13.41,0,0,0-1.66-4.51,8.24,8.24,0,0,0-3.11-3,9.93,9.93,0,0,0-4.86-1.07,16.5,16.5,0,0,0-8.27,2.14,14.89,14.89,0,0,0-5.81,5.7V77.8h-5.19v33.85h5.71V91.23a12.11,12.11,0,0,1,1.75-3.57,12.91,12.91,0,0,1,2.73-2.79,14.18,14.18,0,0,1,3.3-1.85,9.72,9.72,0,0,1,3.51-.68,5.64,5.64,0,0,1,5,2.46c1.1,1.65,1.66,4.28,1.66,7.92v18.93h5.7Zm28.57,19a14.21,14.21,0,0,0,5.35-5.15v2.85a3.45,3.45,0,0,0,1.26,2.63,4.32,4.32,0,0,0,2.95,1.13,9.73,9.73,0,0,0,1.07-.06l1.46-.2v-4.93c-1.21,0-1.81-.73-1.81-2.07V64.31H185V84.55a16.77,16.77,0,0,0-5.09-5.19,12.83,12.83,0,0,0-7.3-2.14,13.75,13.75,0,0,0-6.19,1.39,15.12,15.12,0,0,0-4.86,3.8,17.68,17.68,0,0,0-3.18,5.6,20.15,20.15,0,0,0-1.14,6.78,18.74,18.74,0,0,0,1.2,6.68,17.79,17.79,0,0,0,3.34,5.58,16.27,16.27,0,0,0,5.13,3.83,14.84,14.84,0,0,0,6.48,1.42,14.36,14.36,0,0,0,7-1.85m-10.25-4.08a12.05,12.05,0,0,1-3.66-2.69,12.84,12.84,0,0,1-2.47-4,13.19,13.19,0,0,1-.9-4.83,14.79,14.79,0,0,1,.77-4.7,13,13,0,0,1,2.24-4.09,11.1,11.1,0,0,1,3.5-2.85,9.67,9.67,0,0,1,4.58-1.07,9.35,9.35,0,0,1,3.27.61,12.88,12.88,0,0,1,3.11,1.69A13.38,13.38,0,0,1,183.2,87,10.7,10.7,0,0,1,185,90.06v9.72a7.36,7.36,0,0,1-1.39,3,11.91,11.91,0,0,1-2.53,2.43,12.69,12.69,0,0,1-3.12,1.62,9.57,9.57,0,0,1-3.21.58,10.5,10.5,0,0,1-4.57-1M215,110.71a14.73,14.73,0,0,0,5.74-4.63l.13,2.4a4.14,4.14,0,0,0,1.2,2.43,3.62,3.62,0,0,0,2.69,1,12.07,12.07,0,0,0,1.23-.06l1.49-.2v-4.93c-1.21,0-1.81-.73-1.81-2.07V90.84q0-6.5-3.73-10.06t-10.41-3.56a23.43,23.43,0,0,0-13.17,4.41l1.88,3.69c3.77-2.63,7.35-3.95,10.77-3.95A8.17,8.17,0,0,1,220,90.25V93a23.5,23.5,0,0,0-4.48-1.24,28.4,28.4,0,0,0-5-.45,20.07,20.07,0,0,0-5.74.78,15.26,15.26,0,0,0-4.54,2.14,9.75,9.75,0,0,0-2.95,3.27,8.8,8.8,0,0,0-1,4.25,10,10,0,0,0,.88,4.18,10.36,10.36,0,0,0,2.4,3.34,10.85,10.85,0,0,0,3.6,2.24,12.16,12.16,0,0,0,4.47.81,17.64,17.64,0,0,0,7.43-1.59m-8.85-3.21a7.41,7.41,0,0,1-2.37-1.42,6.34,6.34,0,0,1-2.11-4.8,5.51,5.51,0,0,1,2.69-4.74,12.25,12.25,0,0,1,7-1.81A23.53,23.53,0,0,1,220,96.35v5a3.59,3.59,0,0,1-1.23,2.53,9.36,9.36,0,0,1-4,3,14.26,14.26,0,0,1-5.68,1.13,8,8,0,0,1-2.91-.52m43.25-2.07a13.52,13.52,0,0,1-1.91.87,8.27,8.27,0,0,1-3.08.55,4.17,4.17,0,0,1-2.6-.84,3.56,3.56,0,0,1-1.23-2.72v-21h7.59V77.8h-7.59V66.52h-5.71V77.8h-4.6v4.48h4.6V105a6.29,6.29,0,0,0,2.27,5.35,8.72,8.72,0,0,0,5.39,1.72,14.93,14.93,0,0,0,2.62-.23,16.66,16.66,0,0,0,2.34-.59c.71-.23,1.35-.47,1.91-.71s1-.44,1.36-.61ZM260.5,77.8h-5.71v33.85h5.71Zm0-13.49h-5.71v7.14h5.71ZM290,110.88a17.24,17.24,0,0,0,5.41-3.83,16.8,16.8,0,0,0,3.5-5.58,18.34,18.34,0,0,0,1.24-6.68,18.11,18.11,0,0,0-1.27-6.74,17.64,17.64,0,0,0-3.5-5.58,16.72,16.72,0,0,0-12.35-5.25,16.56,16.56,0,0,0-6.91,1.42,16.77,16.77,0,0,0-5.38,3.83,17.47,17.47,0,0,0-3.5,5.58A17.91,17.91,0,0,0,266,94.79a18.33,18.33,0,0,0,1.23,6.68,17.22,17.22,0,0,0,3.47,5.58,16.54,16.54,0,0,0,12.36,5.25,16.7,16.7,0,0,0,7-1.42m-17.32-21a13,13,0,0,1,2.4-4,11.69,11.69,0,0,1,3.57-2.72,9.77,9.77,0,0,1,4.38-1,10,10,0,0,1,4.37,1,11.52,11.52,0,0,1,3.6,2.69,12.57,12.57,0,0,1,2.43,4,13.52,13.52,0,0,1,.88,4.9,13.73,13.73,0,0,1-.88,5,12.57,12.57,0,0,1-2.43,4,11.52,11.52,0,0,1-3.6,2.69,10.35,10.35,0,0,1-8.75,0,11.35,11.35,0,0,1-3.57-2.66,12.53,12.53,0,0,1-2.4-4,13.61,13.61,0,0,1-.87-4.92,13.87,13.87,0,0,1,.87-5m62.36,1.52a31,31,0,0,0-.49-5.64,13.41,13.41,0,0,0-1.66-4.51,8.17,8.17,0,0,0-3.11-3A9.9,9.9,0,0,0,325,77.22a16.53,16.53,0,0,0-8.27,2.14,14.86,14.86,0,0,0-5.8,5.7V77.8H305.7v33.85h5.7V91.23a11.9,11.9,0,0,1,1.76-3.57,12.64,12.64,0,0,1,2.72-2.79A14,14,0,0,1,319.19,83a9.63,9.63,0,0,1,3.5-.68,5.66,5.66,0,0,1,5,2.46c1.1,1.65,1.65,4.28,1.65,7.92v18.93h5.71Z"></path><path class="cls-2" d="M37.61,5.83H0V11H15.89V51.87h5.84V11H37.61ZM72.05,31.64A27.8,27.8,0,0,0,71.5,26a13.19,13.19,0,0,0-1.79-4.51,8.88,8.88,0,0,0-3.3-3,10.75,10.75,0,0,0-5.06-1.1,14.28,14.28,0,0,0-7.52,2.07,14.92,14.92,0,0,0-5.45,5.77V4.53H42.67V51.87h5.71V31.44a12.35,12.35,0,0,1,1.72-3.56,13.29,13.29,0,0,1,2.59-2.79,12.53,12.53,0,0,1,3.15-1.85,9,9,0,0,1,3.37-.68,6.11,6.11,0,0,1,5.32,2.56q1.81,2.56,1.81,7.82V51.87h5.71Zm27.1,20.23a17.22,17.22,0,0,0,4.25-1.78,15.34,15.34,0,0,0,3.37-2.69,12.41,12.41,0,0,0,2.3-3.44l-4.92-1.36a7.14,7.14,0,0,1-1.53,2.33,9.69,9.69,0,0,1-2.3,1.76,13.7,13.7,0,0,1-2.79,1.13,11.17,11.17,0,0,1-3,.42,10.58,10.58,0,0,1-4.18-.84,11.44,11.44,0,0,1-3.53-2.34,11.79,11.79,0,0,1-2.53-3.56,13.15,13.15,0,0,1-1.17-4.61h28.08c0-.21.07-.52.1-.91s0-.82,0-1.29a18.15,18.15,0,0,0-1.2-6.52,16.37,16.37,0,0,0-8.76-9.31,16.67,16.67,0,0,0-7-1.42,17.22,17.22,0,0,0-7,1.39,16.88,16.88,0,0,0-5.48,3.8A17.2,17.2,0,0,0,78.3,28.2,18.16,18.16,0,0,0,77,35a18.37,18.37,0,0,0,1.26,6.77,17.32,17.32,0,0,0,3.54,5.61,16.54,16.54,0,0,0,5.45,3.8,17.19,17.19,0,0,0,7,1.39,18.15,18.15,0,0,0,4.86-.65M82.94,32.68a12.91,12.91,0,0,1,1.13-4.41,11.46,11.46,0,0,1,2.47-3.47,10.81,10.81,0,0,1,3.53-2.27,11.54,11.54,0,0,1,12.1,2.23,12,12,0,0,1,2.53,3.48,12.18,12.18,0,0,1,1.2,4.44Zm65.5-6.55-7.85,19L125,5.83h-6.29l19.2,46h5.06l9.2-21.72,9.15,21.72h5.06l19.26-46h-6.36l-15.56,39.3-7.92-19,8-20h-5.51l-6.16,16-6.1-16h-5.51Zm57,25a16.77,16.77,0,0,0,8.92-9.4A18.33,18.33,0,0,0,215.62,35a18.14,18.14,0,0,0-1.26-6.74,17.82,17.82,0,0,0-3.5-5.58,16.72,16.72,0,0,0-12.36-5.25,16.56,16.56,0,0,0-6.91,1.42,16.88,16.88,0,0,0-5.38,3.83,17.64,17.64,0,0,0-3.5,5.58A18.14,18.14,0,0,0,181.45,35a18.33,18.33,0,0,0,1.23,6.68,17.22,17.22,0,0,0,3.47,5.58,17.33,17.33,0,0,0,19.32,3.82m-17.31-21a12.64,12.64,0,0,1,2.4-4,11.41,11.41,0,0,1,3.56-2.73,9.83,9.83,0,0,1,4.38-1,10,10,0,0,1,4.38,1,11.64,11.64,0,0,1,3.6,2.69,12.57,12.57,0,0,1,2.43,4,13.77,13.77,0,0,1,.87,4.9,13.94,13.94,0,0,1-.87,5,12.57,12.57,0,0,1-2.43,4,11.48,11.48,0,0,1-3.6,2.69,10.37,10.37,0,0,1-8.76,0A11.19,11.19,0,0,1,190.56,44a12.41,12.41,0,0,1-2.4-4,13.49,13.49,0,0,1-.88-4.93,13.65,13.65,0,0,1,.88-5m33.23,15.07a7,7,0,0,0,1.92,5.26,7.12,7.12,0,0,0,5.22,1.88,17.65,17.65,0,0,0,3.43-.39,19.28,19.28,0,0,0,3.37-1l-.9-4.61a13,13,0,0,1-1.82.55,7.68,7.68,0,0,1-1.68.23,3.7,3.7,0,0,1-2.83-1.07,4.14,4.14,0,0,1-1-3V4.53h-5.71ZM246,51.87V22.5h9V18h-9v-.91a10.78,10.78,0,0,1,1.49-6.22,4.94,4.94,0,0,1,4.34-2.14,9.31,9.31,0,0,1,2.63.39,7.37,7.37,0,0,1,2.24,1L258.16,6a13.19,13.19,0,0,0-3.5-1.52,14.4,14.4,0,0,0-4-.56,9.11,9.11,0,0,0-7.58,3.57q-2.79,3.57-2.79,9.86V18h-4.61V22.5h4.61V51.87Zm35.08-2.14a9,9,0,0,0,3.63-7.52,7.49,7.49,0,0,0-.81-3.63,7.39,7.39,0,0,0-2.46-2.6,17.28,17.28,0,0,0-4.15-1.91q-2.5-.81-5.87-1.59c-1.43-.34-2.65-.67-3.67-1a11,11,0,0,1-2.5-1,3.71,3.71,0,0,1-1.39-1.36,4.08,4.08,0,0,1-.42-1.95,4.59,4.59,0,0,1,2.17-4.24,9.92,9.92,0,0,1,5.29-1.33,16.13,16.13,0,0,1,5.44.94,14.37,14.37,0,0,1,4.8,2.82l2.6-3.44a17.55,17.55,0,0,0-5.58-3.24,20.27,20.27,0,0,0-7.13-1.23,18.05,18.05,0,0,0-5.09.68,12.28,12.28,0,0,0-4.12,2,9.51,9.51,0,0,0-2.76,3.31,9.8,9.8,0,0,0-1,4.5,7.9,7.9,0,0,0,.64,3.38,6,6,0,0,0,2.08,2.33,14.3,14.3,0,0,0,3.63,1.69q2.21.7,5.25,1.49c1.6.39,3,.75,4.22,1.1a14.68,14.68,0,0,1,3,1.17,4.82,4.82,0,0,1,1.75,1.52,3.71,3.71,0,0,1,.59,2.11,4.7,4.7,0,0,1-2.18,4.12,10.37,10.37,0,0,1-5.86,1.46,17.41,17.41,0,0,1-6.29-1.14,23.91,23.91,0,0,1-6-3.4l-2.46,3.82a19.9,19.9,0,0,0,6.81,3.67,26.27,26.27,0,0,0,8,1.26q6.15,0,9.79-2.79M312,51.09a16.77,16.77,0,0,0,8.92-9.4A18.33,18.33,0,0,0,322.1,35a18.14,18.14,0,0,0-1.26-6.74,17.82,17.82,0,0,0-3.5-5.58A16.72,16.72,0,0,0,305,17.44a16.48,16.48,0,0,0-6.9,1.42,16.93,16.93,0,0,0-5.39,3.83,17.64,17.64,0,0,0-3.5,5.58A18.14,18.14,0,0,0,287.93,35a18.33,18.33,0,0,0,1.23,6.68,17.22,17.22,0,0,0,3.47,5.58A17.33,17.33,0,0,0,312,51.09m-17.31-21a12.64,12.64,0,0,1,2.4-4,11.41,11.41,0,0,1,3.56-2.73,9.83,9.83,0,0,1,4.38-1,10,10,0,0,1,4.38,1A11.64,11.64,0,0,1,313,26a12.57,12.57,0,0,1,2.43,4,13.78,13.78,0,0,1,.88,4.9,14,14,0,0,1-.88,5,12.57,12.57,0,0,1-2.43,4,11.48,11.48,0,0,1-3.6,2.69,10.37,10.37,0,0,1-8.76,0A11.19,11.19,0,0,1,297,44a12.41,12.41,0,0,1-2.4-4,13.7,13.7,0,0,1-.88-4.93,13.87,13.87,0,0,1,.88-5m62.48,1.52a30.14,30.14,0,0,0-.49-5.64A13.19,13.19,0,0,0,355,21.49a8.31,8.31,0,0,0-3.11-3A9.94,9.94,0,0,0,347,17.44a16.49,16.49,0,0,0-8.26,2.14,14.89,14.89,0,0,0-5.81,5.7V18h-5.19V51.87h5.71V31.44a11.93,11.93,0,0,1,1.75-3.56,12.91,12.91,0,0,1,2.73-2.79,14,14,0,0,1,3.3-1.85,9.72,9.72,0,0,1,3.51-.68,5.64,5.64,0,0,1,5,2.46c1.1,1.65,1.65,4.28,1.65,7.92V51.87h5.71Z"></path><path class="cls-3" d="M381.62,21.24,379.37,19l.22-.45-1.11-.81-.19.19-.2-.19-1.11.81.22.44-2.26,2.23,1.42-2.84.5.08.42-1.31L377,17l.13-.24L376.05,16l-.36.35-2.81-1.46,3.13.48.09.49h1.37l0-.27.27,0,.42-1.31-.44-.23.52-3.12.52,3.12-.45.23.43,1.31.26,0,.05.27h1.38l.08-.49,3.13-.47-2.81,1.45-.36-.35-1.11.81.12.24-.24.13.42,1.31.5-.08Zm14-5.18-.52-1.6-10.52,1.7,3.15-1.63,7-1.13-.49-1.49-3.13.56L394,11.09l-.49-1.5-6.35,3.23-3.49.53,9.5-4.81-.52-1.6L381,13l2.14-13H381.4l-1.64,10.53L379.19,7l1.1-7h-1.57l-.43,3.15L377.86,0h-1.58l1.1,7-.56,3.49L375.17,0H373.5l2.12,13-11.68-6-.52,1.61,9.51,4.81-3.49-.53L363.08,9.6l-.49,1.49,2.87,1.38-3.13-.56-.49,1.5,7,1.12L372,16.15,361.5,14.46,361,16.05l13,2-9.36,9.24,1.36,1,7.52-7.56-1.59,3.17-5,5,1.27.93,2.2-2.3-1.51,2.81,1.28.92,3.24-6.34,2.51-2.49L371,31.93l1.35,1,5.91-11.75,5.9,11.75,1.36-1-4.87-9.48,2.52,2.49,3.25,6.34,1.27-.93-1.51-2.8,2.2,2.3,1.28-.93-5-5-1.59-3.16,7.52,7.55,1.35-1L382.6,18Z"></path></g></g></svg> 