<svg version="1.1" viewBox="0 0 96 96" xmlns="http://www.w3.org/2000/svg" xmlns:xlink="http://www.w3.org/1999/xlink" id="Icons_OpenHandWithPlant" overflow="hidden"><path d=" M 92 48 C 92 45.8 90.2 44 88 44 C 87.2 44 86.5 44.2 85.9 44.6 L 68.8 54.4 C 69 55.5 69 56.6 68.8 57.8 C 68 61.5 64.5 64 60.7 64 L 43 64 L 43 60 L 61 60 C 63.2 60 65 58.2 65 56 C 65 53.8 63.2 52 61 52 C 61 52 37.2 52 37 52 C 35.3 52 33.7 52.5 32.3 53.3 L 4 67 L 18 81 C 24.5 74.5 32.9 72 42 72 L 60.7 72 C 61.6 72 62.4 71.7 63.1 71.2 L 90.6 51.1 C 91.4 50.3 92 49.2 92 48 Z" stroke="none" stroke-width="1" stroke-linecap="butt" fill="#548235" fill-opacity="1"/><path d=" M 78.1 15.2 C 78.1 15.2 65.7 13.6 59.1 20.2 C 54.3 25 53.8 32.7 53.9 36.7 C 51.8 38.2 50 40.4 48.8 43 C 48.5 42.6 48.3 42.2 48 41.8 C 48.1 38.5 47.6 32.2 43.7 28.3 C 38.2 22.8 28 24.2 28 24.2 C 28 24.2 26.7 34.4 32.1 39.9 C 35.6 43.4 41.2 44.1 44.6 44.2 C 45.6 45.3 46.3 46.9 46.8 48.3 C 46.9 48.6 47 49.3 47 50.2 L 51.1 50.2 C 51.2 48.1 51.5 46.9 52.3 45.2 C 53.3 42.8 55 40.8 57 39.6 C 61.1 39.7 68.5 39 73.1 34.4 C 79.7 27.6 78.1 15.2 78.1 15.2 Z" stroke="none" stroke-width="1" stroke-linecap="butt" fill="#548235" fill-opacity="1"/></svg>